name analog
datacolumns 19
datarows 70
range 0.329 0.3635
endheader
time	ground_force_vx	ground_force_vy	ground_force_vz	ground_force_px	ground_force_py	ground_force_pz	l_ground_force_vx	l_ground_force_vy	l_ground_force_vz	l_ground_force_px	l_ground_force_py	l_ground_force_pz	ground_torque_x	ground_torque_y	ground_torque_z	l_ground_torque_x	l_ground_torque_y	l_ground_torque_z
0.329	-0.0	-0.0	-0.0	-0.0	-0.0	-0.0	4.753350734710693	3.4668314456939697	-662.574462890625	-0.0	-0.0	-0.0	-0.0	-0.0	-0.0	178784.15625	-34132.7734375	88.35523223876953
0.3295	-0.0	-0.0	-0.0	-0.0	-0.0	-0.0	6.350207805633545	3.5622847080230717	-661.875244140625	-0.0	-0.0	-0.0	-0.0	-0.0	-0.0	178167.984375	-34558.59375	776.6861572265625
0.33	-0.0	-0.0	-0.0	-0.0	-0.0	-0.0	7.769651889801025	3.2530517578125	-661.8184814453125	-0.0	-0.0	-0.0	-0.0	-0.0	-0.0	177569.078125	-35178.1875	1200.263916015625
0.3305	-0.0	-0.0	-0.0	-0.0	-0.0	-0.0	9.174038887023926	2.391376256942749	-658.7898559570312	-0.0	-0.0	-0.0	-0.0	-0.0	-0.0	176838.78125	-35372.42578125	1643.688232421875
0.331	-0.0	-0.0	-0.0	-0.0	-0.0	-0.0	10.260061264038086	1.8459672927856443	-656.11572265625	-0.0	-0.0	-0.0	-0.0	-0.0	-0.0	175612.765625	-35483.19921875	2059.666015625
0.3315	-0.0	-0.0	-0.0	-0.0	-0.0	-0.0	10.666625022888184	1.6993497610092163	-653.7327270507812	-0.0	-0.0	-0.0	-0.0	-0.0	-0.0	174959.046875	-35838.3828125	2245.08642578125
0.332	-0.0	-0.0	-0.0	-0.0	-0.0	-0.0	10.238357543945312	1.662704348564148	-653.0353393554688	-0.0	-0.0	-0.0	-0.0	-0.0	-0.0	174409.453125	-36368.0078125	2143.5146484375
0.3325	-0.0	-0.0	-0.0	-0.0	-0.0	-0.0	10.74962043762207	2.1561076641082764	-651.7222290039062	-0.0	-0.0	-0.0	-0.0	-0.0	-0.0	173782.953125	-36329.9765625	2220.774658203125
0.333	-0.0	-0.0	-0.0	-0.0	-0.0	-0.0	11.10954761505127	2.722271203994751	-649.5035400390625	-0.0	-0.0	-0.0	-0.0	-0.0	-0.0	173369.484375	-36745.03515625	2435.770263671875
0.3335	-0.0	-0.0	-0.0	-0.0	-0.0	-0.0	12.044157028198242	3.288322687149048	-649.97705078125	-0.0	-0.0	-0.0	-0.0	-0.0	-0.0	173098.0625	-37189.68359375	2630.468017578125
0.334	-0.0	-0.0	-0.0	-0.0	-0.0	-0.0	12.205756187438965	3.1795806884765625	-649.7711181640625	-0.0	-0.0	-0.0	-0.0	-0.0	-0.0	173056.34375	-37564.22265625	2649.588134765625
0.3345	-0.0	-0.0	-0.0	-0.0	-0.0	-0.0	12.87925624847412	2.665771961212158	-651.3104858398438	-0.0	-0.0	-0.0	-0.0	-0.0	-0.0	173493.75	-37899.49609375	2857.5849609375
0.335	-0.0	-0.0	-0.0	-0.0	-0.0	-0.0	12.931896209716797	2.227833747863769	-651.8660888671875	-0.0	-0.0	-0.0	-0.0	-0.0	-0.0	173623.3125	-38131.51171875	2862.967529296875
0.3355	-0.0	-0.0	-0.0	-0.0	-0.0	-0.0	12.669170379638672	2.2244420051574707	-652.162841796875	-0.0	-0.0	-0.0	-0.0	-0.0	-0.0	173542.96875	-38098.390625	2744.175537109375
0.336	-0.0	-0.0	-0.0	-0.0	-0.0	-0.0	11.63771152496338	1.5869433879852295	-653.481201171875	-0.0	-0.0	-0.0	-0.0	-0.0	-0.0	173407.9375	-38155.01171875	2531.07958984375
0.3365	-0.0	-0.0	-0.0	-0.0	-0.0	-0.0	10.32643699645996	0.8832168579101562	-651.8660888671875	-0.0	-0.0	-0.0	-0.0	-0.0	-0.0	173274.453125	-37818.98046875	2196.271728515625
0.337	-0.0	-0.0	-0.0	-0.0	-0.0	-0.0	8.710550308227539	0.050457552075386	-650.5443115234375	-0.0	-0.0	-0.0	-0.0	-0.0	-0.0	173226.765625	-37759.24609375	1690.6995849609375
0.3375	-0.0	-0.0	-0.0	-0.0	-0.0	-0.0	7.842394828796387	-1.3623117208480835	-651.6580200195312	-0.0	-0.0	-0.0	-0.0	-0.0	-0.0	173135.671875	-37572.97265625	1441.0919189453125
0.338	-0.0	-0.0	-0.0	-0.0	-0.0	-0.0	7.166970729827881	-2.2806990146636963	-654.377685546875	-0.0	-0.0	-0.0	-0.0	-0.0	-0.0	173740.640625	-37830.21484375	1208.7821044921875
0.3385	-0.0	-0.0	-0.0	-0.0	-0.0	-0.0	6.936755180358887	-2.8963119983673096	-656.4815673828125	-0.0	-0.0	-0.0	-0.0	-0.0	-0.0	174846.3125	-37611.37109375	840.5805053710938
0.339	-0.0	-0.0	-0.0	-0.0	-0.0	-0.0	5.571339130401611	-2.3318426609039307	-660.036865234375	-0.0	-0.0	-0.0	-0.0	-0.0	-0.0	175821.40625	-37684.7734375	483.82659912109375
0.3395	-0.0	-0.0	-0.0	-0.0	-0.0	-0.0	4.471096992492676	-1.854389190673828	-662.0621948242188	-0.0	-0.0	-0.0	-0.0	-0.0	-0.0	177050.609375	-37628.99609375	-62.50285339355469
0.34	-0.0	-0.0	-0.0	-0.0	-0.0	-0.0	4.222629547119141	-0.7242304682731628	-664.50537109375	-0.0	-0.0	-0.0	-0.0	-0.0	-0.0	177517.859375	-37665.62890625	-394.6802062988281
0.3405	-0.0	-0.0	-0.0	-0.0	-0.0	-0.0	4.045270919799805	-0.971538543701172	-665.9024658203125	-0.0	-0.0	-0.0	-0.0	-0.0	-0.0	178337.640625	-37954.19140625	-721.1524658203125
0.341	-0.0	-0.0	-0.0	-0.0	-0.0	-0.0	4.25811767578125	-0.3712230324745178	-666.740478515625	-0.0	-0.0	-0.0	-0.0	-0.0	-0.0	178714.71875	-38232.921875	-768.1026611328125
0.3415	-0.0	-0.0	-0.0	-0.0	-0.0	-0.0	3.74299693107605	-0.5299301147460938	-665.9788818359375	-0.0	-0.0	-0.0	-0.0	-0.0	-0.0	179263.90625	-38283.953125	-1077.1768798828125
0.342	-0.0	-0.0	-0.0	-0.0	-0.0	-0.0	2.980956077575684	0.0336934477090835	-664.9952392578125	-0.0	-0.0	-0.0	-0.0	-0.0	-0.0	179839.671875	-38247.3359375	-1575.7236328125
0.3425	-0.0	-0.0	-0.0	-0.0	-0.0	-0.0	2.075485944747925	1.1665362119674685	-666.4647216796875	-0.0	-0.0	-0.0	-0.0	-0.0	-0.0	180186.625	-38610.12890625	-1973.3892822265625
0.343	-0.0	-0.0	-0.0	-0.0	-0.0	-0.0	1.5761876106262207	2.2594056129455566	-665.060791015625	-0.0	-0.0	-0.0	-0.0	-0.0	-0.0	180693.09375	-38648.97265625	-2247.249755859375
0.3435	-0.0	-0.0	-0.0	-0.0	-0.0	-0.0	2.4301891326904297	3.4445457458496094	-665.6207885742188	-0.0	-0.0	-0.0	-0.0	-0.0	-0.0	181380.078125	-38846.46484375	-2363.44873046875
0.34400000000000003	-0.0	-0.0	-0.0	-0.0	-0.0	-0.0	3.03500771522522	4.466888904571533	-665.123046875	-0.0	-0.0	-0.0	-0.0	-0.0	-0.0	182037.3125	-39045.83203125	-2387.812255859375
0.34450000000000003	-0.0	-0.0	-0.0	-0.0	-0.0	-0.0	2.873609781265259	5.491757869720459	-669.0491943359375	-0.0	-0.0	-0.0	-0.0	-0.0	-0.0	183251.859375	-38970.6953125	-2506.34619140625
0.34500000000000003	-0.0	-0.0	-0.0	-0.0	-0.0	-0.0	1.8124878406524656	5.879448890686035	-670.357421875	-0.0	-0.0	-0.0	-0.0	-0.0	-0.0	184261.875	-39087.00390625	-3188.1357421875
0.34550000000000003	-0.0	-0.0	-0.0	-0.0	-0.0	-0.0	0.2121457755565643	6.958235263824463	-672.1926879882812	-0.0	-0.0	-0.0	-0.0	-0.0	-0.0	185191.078125	-38757.52734375	-3758.973876953125
0.34600000000000003	-0.0	-0.0	-0.0	-0.0	-0.0	-0.0	-1.04512357711792	8.35191822052002	-675.9739379882812	-0.0	-0.0	-0.0	-0.0	-0.0	-0.0	186370.90625	-38777.86328125	-4395.3896484375
0.34650000000000003	-0.0	-0.0	-0.0	-0.0	-0.0	-0.0	-1.7591750621795654	10.049214363098145	-675.7030639648438	-0.0	-0.0	-0.0	-0.0	-0.0	-0.0	187329.703125	-38642.71875	-4739.916015625
0.34700000000000003	-0.0	-0.0	-0.0	-0.0	-0.0	-0.0	-1.655846118927002	11.432692527770996	-678.2848510742188	-0.0	-0.0	-0.0	-0.0	-0.0	-0.0	188736.34375	-38487.4609375	-4703.3154296875
0.34750000000000003	-0.0	-0.0	-0.0	-0.0	-0.0	-0.0	-1.2419509887695312	12.527145385742188	-679.3135375976562	-0.0	-0.0	-0.0	-0.0	-0.0	-0.0	189171.0625	-38387.0	-4465.45703125
0.34800000000000003	-0.0	-0.0	-0.0	-0.0	-0.0	-0.0	-1.370618224143982	12.41914176940918	-678.593505859375	-0.0	-0.0	-0.0	-0.0	-0.0	-0.0	189499.453125	-38077.515625	-4501.94287109375
0.34850000000000003	-0.0	-0.0	-0.0	-0.0	-0.0	-0.0	-2.3206794261932373	11.570140838623049	-676.8466796875	-0.0	-0.0	-0.0	-0.0	-0.0	-0.0	189006.25	-37119.15234375	-4598.61279296875
0.34900000000000003	-0.0	-0.0	-0.0	-0.0	-0.0	-0.0	-3.411527156829834	10.741169929504396	-673.2192993164062	-0.0	-0.0	-0.0	-0.0	-0.0	-0.0	188596.703125	-36947.84765625	-4529.41796875
0.34950000000000003	-0.0	-0.0	-0.0	-0.0	-0.0	-0.0	-3.7600159645080566	10.578307151794434	-673.2445068359375	-0.0	-0.0	-0.0	-0.0	-0.0	-0.0	187870.125	-36506.5703125	-4372.02490234375
0.35000000000000003	-0.0	-0.0	-0.0	-0.0	-0.0	-0.0	-3.227679491043091	11.026707649230955	-669.9685668945312	-0.0	-0.0	-0.0	-0.0	-0.0	-0.0	187512.875	-36254.16796875	-4227.7236328125
0.35050000000000003	-0.0	-0.0	-0.0	-0.0	-0.0	-0.0	-2.1157007217407227	11.291875839233398	-667.87451171875	-0.0	-0.0	-0.0	-0.0	-0.0	-0.0	187121.390625	-36103.37890625	-3629.0263671875
0.35100000000000003	-0.0	-0.0	-0.0	-0.0	-0.0	-0.0	-0.5607291460037231	11.331354141235352	-666.3148803710938	-0.0	-0.0	-0.0	-0.0	-0.0	-0.0	186254.484375	-35740.3828125	-2966.486083984375
0.35150000000000003	-0.0	-0.0	-0.0	-0.0	-0.0	-0.0	0.9209831357002258	10.53114891052246	-662.3914794921875	-0.0	-0.0	-0.0	-0.0	-0.0	-0.0	185463.0	-35423.4609375	-2349.828369140625
0.352	-0.0	-0.0	-0.0	-0.0	-0.0	-0.0	1.2841235399246216	10.299973487854004	-657.5855712890625	-0.0	-0.0	-0.0	-0.0	-0.0	-0.0	183963.421875	-34737.3046875	-1935.939697265625
0.3525	-0.0	-0.0	-0.0	-0.0	-0.0	-0.0	1.5293097496032717	9.362098693847656	-652.6136474609375	-0.0	-0.0	-0.0	-0.0	-0.0	-0.0	182376.96875	-34594.83203125	-1721.2340087890625
0.353	-0.0	-0.0	-0.0	-0.0	-0.0	-0.0	1.719169855117798	8.786420822143555	-650.5536499023438	-0.0	-0.0	-0.0	-0.0	-0.0	-0.0	181630.984375	-34047.2890625	-1320.1702880859375
0.3535	-0.0	-0.0	-0.0	-0.0	-0.0	-0.0	1.9086220264434812	8.512335777282715	-648.9882202148438	-0.0	-0.0	-0.0	-0.0	-0.0	-0.0	181422.015625	-33673.99609375	-1060.341796875
0.354	-0.0	-0.0	-0.0	-0.0	-0.0	-0.0	2.759807586669922	8.7222900390625	-649.4219970703125	-0.0	-0.0	-0.0	-0.0	-0.0	-0.0	181353.65625	-33669.21875	-700.5187377929688
0.3545	-0.0	-0.0	-0.0	-0.0	-0.0	-0.0	2.7049002647399902	8.633832931518555	-650.8645629882812	-0.0	-0.0	-0.0	-0.0	-0.0	-0.0	181616.046875	-33628.09765625	-518.64697265625
0.355	-0.0	-0.0	-0.0	-0.0	-0.0	-0.0	2.539222002029419	9.495076179504396	-652.7781372070312	-0.0	-0.0	-0.0	-0.0	-0.0	-0.0	181792.390625	-33782.71484375	-496.2383728027344
0.3555	-0.0	-0.0	-0.0	-0.0	-0.0	-0.0	2.162372350692749	10.156993865966797	-653.7871704101562	-0.0	-0.0	-0.0	-0.0	-0.0	-0.0	181912.609375	-33657.98828125	-570.6387939453125
0.356	-0.0	-0.0	-0.0	-0.0	-0.0	-0.0	1.3861289024353027	10.101770401000977	-656.3175659179688	-0.0	-0.0	-0.0	-0.0	-0.0	-0.0	182379.609375	-33671.0546875	-719.5015869140625
0.3565	-0.0	-0.0	-0.0	-0.0	-0.0	-0.0	0.9202885031700134	10.51028060913086	-658.3267211914062	-0.0	-0.0	-0.0	-0.0	-0.0	-0.0	182737.921875	-33747.37890625	-686.4223022460938
0.357	-0.0	-0.0	-0.0	-0.0	-0.0	-0.0	0.4541533291339874	9.704832077026367	-658.2393798828125	-0.0	-0.0	-0.0	-0.0	-0.0	-0.0	182411.78125	-33678.68359375	-601.5621948242188
0.3575	-0.0	-0.0	-0.0	-0.0	-0.0	-0.0	-0.2000511586666107	9.175089836120604	-657.322509765625	-0.0	-0.0	-0.0	-0.0	-0.0	-0.0	181771.390625	-33583.99609375	-680.0847778320312
0.358	-0.0	-0.0	-0.0	-0.0	-0.0	-0.0	-0.9632264375686646	7.716807842254639	-656.1856689453125	-0.0	-0.0	-0.0	-0.0	-0.0	-0.0	181092.90625	-33561.62890625	-696.2320556640625
0.3585	-0.0	-0.0	-0.0	-0.0	-0.0	-0.0	-1.586826205253601	6.59137773513794	-653.9099731445312	-0.0	-0.0	-0.0	-0.0	-0.0	-0.0	180361.546875	-33487.03125	-741.0552978515625
0.359	-0.0	-0.0	-0.0	-0.0	-0.0	-0.0	-1.074307560920715	5.266615390777588	-652.7320556640625	-0.0	-0.0	-0.0	-0.0	-0.0	-0.0	179527.03125	-33917.94921875	-378.5193786621094
0.3595	-0.0	-0.0	-0.0	-0.0	-0.0	-0.0	0.5090587139129639	4.759866714477539	-653.22509765625	-0.0	-0.0	-0.0	-0.0	-0.0	-0.0	178944.34375	-34099.8125	256.2198791503906
0.36	-0.0	-0.0	-0.0	-0.0	-0.0	-0.0	2.670659303665161	3.862910032272339	-654.1815185546875	-0.0	-0.0	-0.0	-0.0	-0.0	-0.0	178515.328125	-34632.3671875	1117.622314453125
0.3605	-0.0	-0.0	-0.0	-0.0	-0.0	-0.0	4.715997695922852	3.379593849182129	-654.3101806640625	-0.0	-0.0	-0.0	-0.0	-0.0	-0.0	178080.140625	-34904.96484375	1719.936279296875
0.361	-0.0	-0.0	-0.0	-0.0	-0.0	-0.0	5.7425737380981445	2.7233242988586426	-653.2626953125	-0.0	-0.0	-0.0	-0.0	-0.0	-0.0	177900.15625	-35145.11328125	2229.57861328125
0.3615	-0.0	-0.0	-0.0	-0.0	-0.0	-0.0	6.774498462677002	2.2316911220550537	-654.3101806640625	-0.0	-0.0	-0.0	-0.0	-0.0	-0.0	177681.703125	-35250.703125	2378.508056640625
0.362	-0.0	-0.0	-0.0	-0.0	-0.0	-0.0	7.9191575050354	2.408478260040283	-656.6265869140625	-0.0	-0.0	-0.0	-0.0	-0.0	-0.0	177746.015625	-35557.203125	2627.51611328125
0.3625	-0.0	-0.0	-0.0	-0.0	-0.0	-0.0	8.314779281616211	2.5935251712799072	-658.5	-0.0	-0.0	-0.0	-0.0	-0.0	-0.0	177928.9375	-35926.33984375	2924.4619140625
0.363	-0.0	-0.0	-0.0	-0.0	-0.0	-0.0	9.314632415771484	2.4489378929138184	-660.5311889648438	-0.0	-0.0	-0.0	-0.0	-0.0	-0.0	178064.609375	-36039.6953125	3100.390625
0.3635	-0.0	-0.0	-0.0	-0.0	-0.0	-0.0	10.516531944274902	1.3568745851516724	-661.9605102539062	-0.0	-0.0	-0.0	-0.0	-0.0	-0.0	178299.734375	-36089.31640625	3340.96044921875
